<?xml version="1.0" encoding="utf-8"?>
<!-- Generator: Adobe Illustrator 17.1.0, SVG Export Plug-In . SVG Version: 6.00 Build 0)  -->
<!DOCTYPE svg PUBLIC "-//W3C//DTD SVG 1.1//EN" "http://www.w3.org/Graphics/SVG/1.1/DTD/svg11.dtd">
<svg version="1.1" id="Layer_1" xmlns="http://www.w3.org/2000/svg" xmlns:xlink="http://www.w3.org/1999/xlink" x="0px" y="0px"
	 viewBox="0 0 192.8 192.8" enable-background="new 0 0 192.8 192.8" xml:space="preserve">
<g>
	<polygon fill-rule="evenodd" clip-rule="evenodd" fill="none" points="0,0 192.8,0 192.8,192.8 0,192.8 0,0 	"/>
	<path fill-rule="evenodd" clip-rule="evenodd" fill="#170F2A" d="M8.5,120.2h2c2.2,0,4,0.6,4,2.4c0,0.7-0.4,1.3-1.2,1.7
		c1.4,0.3,2.3,1.2,2.3,2.3c0,1.8-1.9,2.5-4.3,2.5H8.5V120.2L8.5,120.2z M9.8,128.1h1.3c1.5,0,3-0.3,3-1.6c0-1.4-1.8-1.6-3.2-1.6H9.8
		V128.1L9.8,128.1z M9.8,124.1h0.5c1.5,0,2.8-0.1,2.8-1.5c0-1.3-1.1-1.5-2.8-1.5H9.8V124.1L9.8,124.1z"/>
	<path fill-rule="evenodd" clip-rule="evenodd" fill="#170F2A" d="M17.4,126.5c0,1,1,1.8,2.4,1.8c1.1,0,1.8-0.5,2.3-1.1l1.1,0.5
		c-0.7,1-1.9,1.5-3.4,1.5c-2.2,0-3.6-1.3-3.6-2.8c0-1.6,1.3-3,3.6-3c2.4,0,3.6,1.5,3.5,3.1H17.4L17.4,126.5z M21.9,125.7
		c-0.2-0.8-1.1-1.4-2.2-1.4c-1.1,0-2.1,0.6-2.3,1.4H21.9L21.9,125.7z"/>
	<polygon fill-rule="evenodd" clip-rule="evenodd" fill="#170F2A" points="23.1,123.5 24.6,123.5 27.2,127.5 29.6,123.5 31,123.5 
		25.6,132.1 24.1,132.1 26.5,128.5 23.1,123.5 	"/>
	<path fill-rule="evenodd" clip-rule="evenodd" fill="#170F2A" d="M30.9,126.3c0-1.6,1.7-2.9,3.9-2.9c2.2,0,3.9,1.3,3.9,2.9
		c0,1.6-1.7,2.9-3.9,2.9C32.6,129.2,30.9,127.9,30.9,126.3L30.9,126.3z M32.1,126.3c0,1.1,1.1,2,2.6,2c1.6,0,2.6-0.9,2.6-2
		c0-1.1-1.1-2-2.6-2C33.2,124.2,32.1,125.2,32.1,126.3L32.1,126.3z"/>
	<path fill-rule="evenodd" clip-rule="evenodd" fill="#170F2A" d="M41,124.2L41,124.2c0.6-0.5,1.2-0.8,2.1-0.8
		c2.1,0,2.5,1.1,2.5,2.4v3.3h-1.3v-3.1c0-0.9-0.1-1.7-1.6-1.7c-1.7,0-1.8,1.2-1.8,2.2v2.6h-1.3v-5.5H41V124.2L41,124.2z"/>
	<path fill-rule="evenodd" clip-rule="evenodd" fill="#170F2A" d="M52.9,128.3L52.9,128.3c-0.6,0.6-1.6,0.9-2.6,0.9
		c-2.2,0-3.6-1.4-3.6-2.9c0-1.6,1.3-2.9,3.6-2.9c1,0,1.9,0.4,2.5,0.9h0v-4.9h1.3v9.7h-1.3V128.3L52.9,128.3z M48.1,126.2
		c0,1.1,0.9,2.1,2.4,2.1c1.6,0,2.5-1,2.5-2.1c0-1.1-0.9-2-2.5-2C49,124.2,48.1,125.2,48.1,126.2L48.1,126.2z"/>
	<path fill-rule="evenodd" clip-rule="evenodd" fill="#170F2A" d="M66.8,129h-1.3v-0.8h0c-0.6,0.6-1.5,0.9-2.6,0.9
		c-2.2,0-3.6-1.4-3.6-2.9c0-1.6,1.3-2.9,3.6-2.9c1,0,1.9,0.4,2.5,0.9h0v-0.8h1.3V129L66.8,129z M60.7,126.2c0,1.1,0.9,2.1,2.4,2.1
		c1.6,0,2.5-1,2.5-2.1c0-1.1-0.9-2-2.5-2C61.7,124.2,60.7,125.2,60.7,126.2L60.7,126.2z"/>
	<path fill-rule="evenodd" clip-rule="evenodd" fill="#170F2A" d="M69.8,124.2L69.8,124.2c0.6-0.5,1.2-0.8,2.1-0.8
		c2.1,0,2.5,1.1,2.5,2.4v3.3h-1.3v-3.1c0-0.9-0.1-1.7-1.6-1.7c-1.7,0-1.8,1.2-1.8,2.2v2.6h-1.3v-5.5h1.3V124.2L69.8,124.2z"/>
	<polygon fill-rule="evenodd" clip-rule="evenodd" fill="#170F2A" points="75,123.5 76.4,123.5 79.1,127.5 81.5,123.5 82.9,123.5 
		77.4,132.1 76,132.1 78.4,128.5 75,123.5 	"/>
	<path fill-rule="evenodd" clip-rule="evenodd" fill="#170F2A" d="M90.6,124.8c-0.2-0.3-0.6-0.6-1-0.6c-0.4,0-0.9,0.3-0.9,0.6
		c0,0.5,0.9,0.7,1.7,1c0.9,0.3,1.7,0.7,1.7,1.6c0,1-1.1,1.8-2.5,1.8c-1.2,0-2.2-0.5-2.6-1.4l1.1-0.4c0.3,0.5,0.7,0.9,1.5,0.9
		c0.7,0,1.2-0.3,1.2-0.8c0-1.2-3.3-0.8-3.3-2.5c0-0.9,1-1.6,2.2-1.6c0.9,0,1.6,0.4,2,1L90.6,124.8L90.6,124.8z"/>
	<polygon fill-rule="evenodd" clip-rule="evenodd" fill="#170F2A" points="94.6,129 93.3,129 93.3,124.4 92.5,124.4 92.5,123.5 
		93.3,123.5 93.3,121.5 94.6,121.5 94.6,123.5 95.9,123.5 95.9,124.4 94.6,124.4 94.6,129 	"/>
	<path fill-rule="evenodd" clip-rule="evenodd" fill="#170F2A" d="M95.7,126.3c0-1.6,1.7-2.9,3.9-2.9c2.2,0,3.9,1.3,3.9,2.9
		c0,1.6-1.7,2.9-3.9,2.9C97.4,129.2,95.7,127.9,95.7,126.3L95.7,126.3z M97,126.3c0,1.1,1.1,2,2.6,2c1.6,0,2.6-0.9,2.6-2
		c0-1.1-1.1-2-2.6-2C98,124.2,97,125.2,97,126.3L97,126.3z"/>
	<path fill-rule="evenodd" clip-rule="evenodd" fill="#170F2A" d="M105.8,124.1L105.8,124.1c0.5-0.4,0.9-0.7,1.7-0.7
		c0.4,0,0.8,0.1,1.1,0.3l-0.6,0.9c-0.3-0.1-0.4-0.2-0.8-0.2c-1.4,0-1.5,1.3-1.5,2v2.8h-1.3v-5.5h1.3V124.1L105.8,124.1z"/>
	<path fill-rule="evenodd" clip-rule="evenodd" fill="#170F2A" d="M109.8,126.5c0,1,1,1.8,2.4,1.8c1.1,0,1.8-0.5,2.3-1.1l1.1,0.5
		c-0.7,1-1.9,1.5-3.4,1.5c-2.2,0-3.6-1.3-3.6-2.8c0-1.6,1.3-3,3.6-3c2.4,0,3.6,1.5,3.5,3.1H109.8L109.8,126.5z M114.3,125.7
		c-0.2-0.8-1.1-1.4-2.2-1.4c-1.1,0-2.1,0.6-2.3,1.4H114.3L114.3,125.7z"/>
	<path fill-rule="evenodd" clip-rule="evenodd" fill="#170F2A" d="M120.3,126.3c0-1.6,1.7-2.9,3.9-2.9s3.9,1.3,3.9,2.9
		c0,1.6-1.7,2.9-3.9,2.9S120.3,127.9,120.3,126.3L120.3,126.3z M121.5,126.3c0,1.1,1.1,2,2.6,2s2.6-0.9,2.6-2c0-1.1-1.1-2-2.6-2
		S121.5,125.2,121.5,126.3L121.5,126.3z"/>
	<path fill-rule="evenodd" clip-rule="evenodd" fill="#170F2A" d="M130.5,129h-1.3v-4.6h-0.7v-0.9h0.7v-2.2c0-0.5,0-1,0.3-1.4
		c0.4-0.5,1.2-0.7,1.9-0.7c0.3,0,0.6,0,0.9,0.1v0.9c-0.3-0.1-0.5-0.1-0.9-0.1c-1,0-1,0.5-1,1.5v1.9h1.9v0.9h-1.9V129L130.5,129z"/>
	<path fill-rule="evenodd" clip-rule="evenodd" fill="#170F2A" d="M137.2,123.5h1.3v5.5h-1.3V123.5L137.2,123.5z M138.8,121.4
		c0,0.4-0.4,0.7-0.9,0.7c-0.5,0-0.9-0.3-0.9-0.7c0-0.4,0.4-0.7,0.9-0.7C138.4,120.8,138.8,121.1,138.8,121.4L138.8,121.4z"/>
	<polygon fill-rule="evenodd" clip-rule="evenodd" fill="#170F2A" points="141.8,129 140.5,129 140.5,124.4 139.8,124.4 
		139.8,123.5 140.5,123.5 140.5,121.5 141.8,121.5 141.8,123.5 143.1,123.5 143.1,124.4 141.8,124.4 141.8,129 	"/>
	<path fill-rule="evenodd" clip-rule="evenodd" fill="#170F2A" d="M146.6,124.8c-0.2-0.3-0.6-0.6-1-0.6c-0.4,0-0.9,0.3-0.9,0.6
		c0,0.5,0.9,0.7,1.7,1c0.9,0.3,1.7,0.7,1.7,1.6c0,1-1.1,1.8-2.5,1.8c-1.2,0-2.2-0.5-2.6-1.4l1.1-0.4c0.3,0.5,0.7,0.9,1.5,0.9
		c0.7,0,1.2-0.3,1.2-0.8c0-1.2-3.3-0.8-3.3-2.5c0-0.9,1-1.6,2.2-1.6c0.9,0,1.6,0.4,2,1L146.6,124.8L146.6,124.8z"/>
	<polygon fill-rule="evenodd" clip-rule="evenodd" fill="#170F2A" points="154.6,125.5 157.3,123.5 159,123.5 155.9,125.9 
		159.6,129 158,129 155,126.5 154.6,126.8 154.6,129 153.4,129 153.4,119.4 154.6,119.4 154.6,125.5 	"/>
	<path fill-rule="evenodd" clip-rule="evenodd" fill="#170F2A" d="M160.4,123.5h1.3v5.5h-1.3V123.5L160.4,123.5z M162,121.4
		c0,0.4-0.4,0.7-0.9,0.7c-0.5,0-0.9-0.3-0.9-0.7c0-0.4,0.4-0.7,0.9-0.7C161.6,120.8,162,121.1,162,121.4L162,121.4z"/>
	<path fill-rule="evenodd" clip-rule="evenodd" fill="#170F2A" d="M164.9,124.2L164.9,124.2c0.6-0.5,1.2-0.8,2.1-0.8
		c2.1,0,2.5,1.1,2.5,2.4v3.3h-1.3v-3.1c0-0.9-0.1-1.7-1.6-1.7c-1.7,0-1.8,1.2-1.8,2.2v2.6h-1.3v-5.5h1.3V124.2L164.9,124.2z"/>
	<path fill-rule="evenodd" clip-rule="evenodd" fill="#170F2A" d="M176.9,128.3L176.9,128.3c-0.6,0.6-1.6,0.9-2.6,0.9
		c-2.2,0-3.6-1.4-3.6-2.9c0-1.6,1.3-2.9,3.6-2.9c1,0,1.9,0.4,2.5,0.9h0v-4.9h1.3v9.7h-1.3V128.3L176.9,128.3z M172,126.2
		c0,1.1,0.9,2.1,2.4,2.1c1.6,0,2.5-1,2.5-2.1c0-1.1-0.9-2-2.5-2C173,124.2,172,125.2,172,126.2L172,126.2z"/>
	<path fill-rule="evenodd" clip-rule="evenodd" fill="#170F2A" d="M181.9,128.5c0,0.4-0.4,0.7-0.9,0.7c-0.5,0-0.9-0.3-0.9-0.7
		c0-0.4,0.4-0.6,0.9-0.6C181.5,127.9,181.9,128.1,181.9,128.5L181.9,128.5z"/>
	<path fill-rule="evenodd" clip-rule="evenodd" fill="#170F2A" d="M8.7,94.6h9.5c4.3,0,8.8,0.9,8.8,5.6c0,1.8-1,3.5-2.9,4.1v0.2
		c2.4,0.8,4,2.4,4,4.8c0,4.2-4.3,5.6-8.2,5.6H8.7V94.6L8.7,94.6z M17,102.4c1.2,0,2.5-0.1,2.5-1.5c0-1.5-1.5-1.4-2.7-1.4h-0.6v2.9
		H17L17,102.4z M16.3,110.1h0.9c1.3,0,3.3,0,3.3-1.7c0-1.7-2.1-1.7-3.4-1.7h-0.8V110.1L16.3,110.1z"/>
	<polygon fill-rule="evenodd" clip-rule="evenodd" fill="#170F2A" points="29.3,94.6 45.7,94.6 45.7,100.1 38.3,100.1 38.3,102.1 
		45.1,102.1 45.1,107.4 38.3,107.4 38.3,109.4 46,109.4 46,114.9 29.3,114.9 29.3,94.6 	"/>
	<path fill-rule="evenodd" clip-rule="evenodd" fill="#170F2A" d="M57.3,94.6l3.1,5.3h0.3c0.3-0.6,0.5-1.3,0.9-1.9l2-3.4h11.2
		l-9.4,11.6v8.8h-9.8v-8.8L46,94.6H57.3L57.3,94.6z"/>
	<path fill-rule="evenodd" clip-rule="evenodd" fill="#170F2A" d="M103,104.8c0,6.5-7.3,10.4-16.3,10.4c-9,0-16.3-3.9-16.3-10.4
		c0-6.4,7.4-10.6,16.3-10.6C95.6,94.2,103,98.4,103,104.8L103,104.8z M81.2,104.9c0,2.3,2.3,3.9,5.5,3.9c3.2,0,5.5-1.6,5.5-3.9
		c0-2.2-2.1-4-5.5-4C83.3,100.9,81.2,102.7,81.2,104.9L81.2,104.9z"/>
	<path fill-rule="evenodd" clip-rule="evenodd" fill="#170F2A" d="M137.8,94.6h16.9c15.4,0,27.2,3,27.2,10.5c0,6-9.6,9.9-23,9.9
		h-21.1V94.6L137.8,94.6z M154.4,108.8h1c5.5,0,9.8-1.1,9.8-3.8c0-2.9-3.7-4.1-9.8-4.1h-1V108.8L154.4,108.8z"/>
	<path fill-rule="evenodd" clip-rule="evenodd" fill="#170F2A" d="M178.3,94.8c0-1.5,1.2-2.7,2.7-2.7c1.5,0,2.7,1.2,2.7,2.7
		c0,1.5-1.2,2.7-2.7,2.7C179.5,97.5,178.3,96.3,178.3,94.8L178.3,94.8z M183.3,94.8c0-1.3-1.1-2.3-2.3-2.3c-1.2,0-2.3,1-2.3,2.3
		c0,1.3,1.1,2.3,2.3,2.3C182.3,97.1,183.3,96.1,183.3,94.8L183.3,94.8z M182.3,96.2h-0.5l-0.9-1.4h-0.5v1.4H180v-3h1.3
		c0.5,0,1.1,0.1,1.1,0.8c0,0.6-0.4,0.8-0.9,0.8L182.3,96.2L182.3,96.2z M180.9,94.5c0.4,0,1,0.1,1-0.4c0-0.3-0.4-0.4-0.7-0.4h-0.8
		v0.8H180.9L180.9,94.5z"/>
	<path fill-rule="evenodd" clip-rule="evenodd" fill="#170F2A" d="M179.1,118.4c0-1.4,1.1-2.6,2.6-2.6c1.4,0,2.6,1.1,2.6,2.6
		c0,1.4-1.1,2.6-2.6,2.6C180.2,121,179.1,119.9,179.1,118.4L179.1,118.4z M183.9,118.4c0-1.2-1-2.2-2.2-2.2c-1.2,0-2.2,1-2.2,2.2
		c0,1.2,1,2.2,2.2,2.2C182.8,120.6,183.9,119.6,183.9,118.4L183.9,118.4z M182.9,119.8h-0.5l-0.8-1.3h-0.5v1.3h-0.4V117h1.2
		c0.5,0,1,0.1,1,0.7c0,0.6-0.4,0.8-0.9,0.8L182.9,119.8L182.9,119.8z M181.6,118.1c0.3,0,1,0.1,1-0.4c0-0.3-0.4-0.3-0.7-0.3h-0.8
		v0.7H181.6L181.6,118.1z"/>
	<polygon fill-rule="evenodd" clip-rule="evenodd" fill="#170F2A" points="115.3,94.6 104.3,94.6 104.3,114.9 115.3,114.9 
		115.3,104.6 125,114.9 136,114.9 136,94.6 125,94.6 125,105.1 115.3,94.6 	"/>
	<path fill-rule="evenodd" clip-rule="evenodd" fill="#170F2A" d="M8.7,61.8H12c5.1,0,9.9,1.3,9.9,7.4c0,2-1.1,4.3-2.9,5.1v0.1
		c3.2,0.6,5.4,3.7,5.4,6.8c0,5.4-4.6,7.5-9.4,7.5H8.7V61.8L8.7,61.8z M12,73.7h0.9c3.2,0,5.8-0.6,5.8-4.5c0-3.8-2.6-4.4-5.7-4.4H12
		V73.7L12,73.7z M12,85.8h2.6c3.1,0,6.4-0.9,6.4-4.8c0-3.8-3.9-4.6-6.9-4.6H12V85.8L12,85.8z"/>
	<polygon fill-rule="evenodd" clip-rule="evenodd" fill="#170F2A" points="26.3,61.8 40.8,61.8 40.8,64.9 29.7,64.9 29.7,72.4 
		40.5,72.4 40.5,75.5 29.7,75.5 29.7,85.7 40.8,85.7 40.8,88.8 26.3,88.8 26.3,61.8 	"/>
	<path fill-rule="evenodd" clip-rule="evenodd" fill="#170F2A" d="M43.9,61.8h5.6c8.3,0,15.1,4.4,15.1,13.3
		c0,9.2-6.7,13.6-15.2,13.6h-5.5V61.8L43.9,61.8z M47.3,85.7h1.2c6.9,0,12.8-2.6,12.8-10.4c0-7.9-5.9-10.4-12.8-10.4h-1.2V85.7
		L47.3,85.7z"/>
	<path fill-rule="evenodd" clip-rule="evenodd" fill="#170F2A" d="M74.1,61.8h3.3c5.1,0,9.9,1.3,9.9,7.4c0,2-1.1,4.3-2.9,5.1v0.1
		c3.2,0.6,5.4,3.7,5.4,6.8c0,5.4-4.6,7.5-9.4,7.5h-6.3V61.8L74.1,61.8z M77.5,73.7h0.9c3.2,0,5.8-0.6,5.8-4.5c0-3.8-2.6-4.4-5.7-4.4
		h-0.9V73.7L77.5,73.7z M77.5,85.8H80c3.1,0,6.4-0.9,6.4-4.8c0-3.8-3.9-4.6-6.9-4.6h-2.1V85.8L77.5,85.8z"/>
	<path fill-rule="evenodd" clip-rule="evenodd" fill="#170F2A" d="M96.3,82l-3.1,6.8h-3.6l12.9-28.1l12.9,28.1h-3.6l-3.1-6.8H96.3
		L96.3,82z M102.4,68l-4.8,10.9h9.6L102.4,68L102.4,68z"/>
	<polygon fill-rule="evenodd" clip-rule="evenodd" fill="#170F2A" points="121.2,88.8 117.9,88.8 117.9,64.9 111.5,64.9 111.5,61.8 
		127.6,61.8 127.6,64.9 121.2,64.9 121.2,88.8 	"/>
	<polygon fill-rule="evenodd" clip-rule="evenodd" fill="#170F2A" points="145.7,72.7 145.7,61.8 149,61.8 149,88.8 145.7,88.8 
		145.7,75.8 132.8,75.8 132.8,88.8 129.5,88.8 129.5,61.8 132.8,61.8 132.8,72.7 145.7,72.7 	"/>
	<path fill-rule="evenodd" clip-rule="evenodd" fill="#170F2A" d="M174.1,85.1c-2,2.4-4.9,4.2-8.1,4.2c-4.5,0-8.3-3.3-8.3-7.9
		c0-3.4,2.1-5.3,4.7-7.2l1.7-1.2c-1.5-1.6-3-3.6-3-5.9c0-3.7,2.7-5.9,6.2-5.9c3.3,0,6.2,2.1,6.2,5.6c0,3-2.6,5.1-4.9,6.7l5.6,6.8
		l3.1-3.6l2.1,2.2l-3.3,3.9l4.8,6h-4.1L174.1,85.1L174.1,85.1z M165.8,75.7c-1.9,1.3-4.9,3.1-4.9,5.7c0,2.6,2.4,5,5,5
		c2.5,0,4.5-1.9,6.2-3.6l-6-7.3L165.8,75.7L165.8,75.7z M167.3,71c1.4-1.1,3.2-2.2,3.2-4.1c0-1.9-1.4-2.9-3.1-2.9
		c-1.6,0-3,1.1-3,2.9c0,1.4,0.8,2.4,1.6,3.4l0.9,1.1L167.3,71L167.3,71z"/>
</g>
</svg>
