<?xml version="1.0" encoding="utf-8"?>
<!-- Generator: Adobe Illustrator 17.1.0, SVG Export Plug-In . SVG Version: 6.00 Build 0)  -->
<!DOCTYPE svg PUBLIC "-//W3C//DTD SVG 1.1//EN" "http://www.w3.org/Graphics/SVG/1.1/DTD/svg11.dtd">
<svg version="1.1" id="Layer_1" xmlns="http://www.w3.org/2000/svg" xmlns:xlink="http://www.w3.org/1999/xlink" x="0px" y="0px"
	 viewBox="0 0 612 792" enable-background="new 0 0 612 792" xml:space="preserve">
<g>
	<polygon fill-rule="evenodd" clip-rule="evenodd" fill="#FFFFFF" points="209,300 401.8,300 401.8,492.8 209,492.8 209,300 	"/>
	<path fill-rule="evenodd" clip-rule="evenodd" fill="#170F2A" d="M309.8,408.3l-1.7-2.2c-1.4,1.4-4.5,2.8-6.8,2.8
		c-3.9,0-7.2-2.8-7.2-6.5c0-4.5,4.3-7,5.6-7.4c-0.9-1.1-2.4-2.9-2.4-5.2c0.1-3,1.9-5.4,5.9-5.4c3.4,0,6,2.3,6,5.6
		c0,3.8-2.9,5.1-3.8,5.8l2.8,4c0.8-1,1.5-3.3,1.4-3.8h3.8c0,0-0.5,4.7-2.7,7l4,5.2H309.8L309.8,408.3z M303.4,388
		c-1.2,0-2.2,1-2,1.9c0.1,1.3,1.2,2.2,1.8,3c0.9-0.6,2.4-1.5,2.4-2.9C305.5,389,304.7,388,303.4,388L303.4,388z M302,398
		c-3.7,2.5-3.4,4.2-3.4,4.2c0,1.7,1.6,2.7,2.8,2.8c1.4,0,3.4-1.2,4.4-2L302,398L302,398z"/>
	<path fill-rule="evenodd" clip-rule="evenodd" fill="#170F2A" d="M237.6,394.6c-0.9-3.4-4-6.2-7.6-6.2c-4.6,0-8.1,3.7-8,8.1
		c0.1,4.3,3.4,7.6,8,7.6c4.3,0,6.8-3.1,7.3-5.2h4.5c-1,6.3-7.1,9.7-11.9,9.7c-5.5,0-12.4-4.5-12.4-12.2c0-7.2,5.5-12.6,12.5-12.6
		c5.9,0,11.3,4.5,12.1,10.8H237.6L237.6,394.6z"/>
	<path fill-rule="evenodd" clip-rule="evenodd" fill="#170F2A" d="M274.2,408.4c-3.6,0-4.2-2.6-4.2-4V394h-2.3v-3.3h2.3v-5.2h4.5
		v5.4h2.9v3.1h-2.9v9.4c0,2.4,2.9,1.6,3.3,1.7v3.3H274.2L274.2,408.4z"/>
	<path fill-rule="evenodd" clip-rule="evenodd" fill="#170F2A" d="M247.3,400.4c0,0.2,0,7.9,0,7.9h-4.4v-17.1h4.3v1.7
		c0.6-0.9,1.9-1.8,3.3-2.3c1-0.1,1.9,0,1.9,0v4.2C250.2,394.2,247.1,395.1,247.3,400.4L247.3,400.4z"/>
	<path fill-rule="evenodd" clip-rule="evenodd" fill="#170F2A" d="M281.2,400.7c0,2.3,2.2,4,4.4,4c1.6,0,2.6-0.6,3.4-1.9h4.6
		c-0.6,3-3.8,5.8-7.9,5.8c-5.3,0-9-4-9-9.6c0-4.3,3.2-8.7,8.5-8.6c6,0.1,8.7,5.3,8.6,10.3H281.2L281.2,400.7z M285.2,394
		c-1.9-0.1-3.8,1.4-3.8,3.6h7.5C289,395.4,287.2,394,285.2,394L285.2,394z"/>
	<path fill-rule="evenodd" clip-rule="evenodd" fill="#170F2A" d="M263.9,408.3c0,0.1-0.1-0.6-0.3-1.4c-0.8,0.6-2.5,1.9-5.2,1.9
		c-3,0-6.5-1.8-6.5-5.4c0-2.2,1.4-5,6.2-5.6c2.8-0.4,5-0.2,5.1-1.7c0.1-0.5-0.4-2.4-3.2-2.4c-1.3,0-2.9,0.4-3.2,2.5h-3.9
		c0-3,1.8-5.6,7.5-5.6c3.6,0,7.1,1.5,7.1,5.4c0,0,0,9.1,0,9.5c0.1,1,0.4,2.3,0.8,2.8H263.9L263.9,408.3z M255.9,403.3
		c0.1,1.8,2.5,2.2,2.9,1.9c0,0,2.4,0,3.4-1.2c0.6-0.9,1-1.9,0.6-4.3C258.6,400.7,255.9,401.2,255.9,403.3L255.9,403.3z"/>
	<polygon fill-rule="evenodd" clip-rule="evenodd" fill="#170F2A" points="388.9,385.2 393.3,385.2 393.3,408.3 388.9,408.3 
		388.9,385.2 	"/>
	<path fill-rule="evenodd" clip-rule="evenodd" fill="#170F2A" d="M366.2,400.5c0,0.2,0,7.7,0,7.7h-4.4v-17h4.3v1.7
		c0.8-0.9,1.9-1.9,3.3-2.3c1.1-0.2,2,0,2,0v4.2C369,394.3,366,395.2,366.2,400.5L366.2,400.5z"/>
	<path fill-rule="evenodd" clip-rule="evenodd" fill="#170F2A" d="M355.6,400.5c0,0.2,0,7.7,0,7.7h-4.5v-17h4.4v1.7
		c0.8-0.9,1.9-1.9,3.3-2.3c1-0.2,1.9,0,1.9,0v4.2C358.5,394.3,355.4,395.2,355.6,400.5L355.6,400.5z"/>
	<path fill-rule="evenodd" clip-rule="evenodd" fill="#170F2A" d="M375.5,400.8c0,2.2,2.2,3.9,4.4,3.9c1.5,0,2.6-0.5,3.4-1.9h4.5
		c-0.5,3-3.7,5.8-7.7,5.8c-5.2,0-9-4-9-9.5c0-4.3,3.2-8.7,8.5-8.6c5.9,0,8.7,5.3,8.5,10.3H375.5L375.5,400.8z M379.6,394
		c-2,0-3.9,1.4-3.9,3.6h7.5C383.2,395.5,381.6,394,379.6,394L379.6,394z"/>
	<path fill-rule="evenodd" clip-rule="evenodd" fill="#170F2A" d="M327.1,408.3c-4.8,0-12.1,0-12.1,0v-23.1h10.4
		c3.6,0,7.2,1.6,7.2,5.9c0,3.6-2.8,4.3-3.4,4.8c2,0.6,4.3,2.6,4.3,6.3C333.5,406.3,329.5,408.3,327.1,408.3L327.1,408.3z
		 M324.5,388.8h-5.2v5.7h5c1.1,0,3.7-0.4,3.7-3.1C327.9,389.5,326.1,388.8,324.5,388.8L324.5,388.8z M324.5,397.9h-5.2v6.8h5.5
		c0.8,0,3.7-0.6,3.7-3.1C328.5,400.2,328.1,397.9,324.5,397.9L324.5,397.9z"/>
	<path fill-rule="evenodd" clip-rule="evenodd" fill="#170F2A" d="M346.1,408.3c0,0.1-0.2-0.6-0.3-1.4c-0.8,0.6-2.5,1.9-5.2,1.9
		c-3,0-6.5-1.8-6.5-5.4c0-2.2,1.4-4.8,6.3-5.6c2.6-0.4,4.8-0.2,5-1.7c0.1-0.4-0.4-2.3-3.2-2.3c-1.3,0-2.8,0.3-3.1,2.5h-4
		c0-3,2-5.6,7.5-5.6c3.4,0,7,1.5,7.1,5.4c0,3.2,0,8.8,0,8.8c0,0.8,0.3,2.7,0.6,3.3H346.1L346.1,408.3z M338.7,403.3
		c0,1.8,2.5,2.2,2.9,1.9c0,0,2.4,0,3.3-1.2c0.6-0.9,0.9-1.8,0.6-4.3C341.4,400.8,338.7,401.2,338.7,403.3L338.7,403.3z"/>
</g>
</svg>
