<?xml version="1.0" encoding="utf-8"?>
<!-- Generator: Adobe Illustrator 17.1.0, SVG Export Plug-In . SVG Version: 6.00 Build 0)  -->
<!DOCTYPE svg PUBLIC "-//W3C//DTD SVG 1.1//EN" "http://www.w3.org/Graphics/SVG/1.1/DTD/svg11.dtd">
<svg version="1.1" id="Layer_1" xmlns="http://www.w3.org/2000/svg" xmlns:xlink="http://www.w3.org/1999/xlink" x="0px" y="0px"
	 viewBox="0 0 612 792" enable-background="new 0 0 612 792" xml:space="preserve">
<rect x="53" y="277" fill="none" stroke="#FFFFFF" stroke-miterlimit="10" width="507" height="238"/>
<polygon fill="#170F2A" points="315,338.6 305.3,309 295.7,338.6 264.4,338.6 289.8,356.9 280.2,386.5 305.3,368.2 330.6,386.6 
	320.9,356.9 346.2,338.6 "/>
<path fill="#170F2A" d="M266.8,461c-12.7,0-22.3-10.4-22.3-23c0-12.6,9.8-23,22.3-23c10.2,0,17.5,6.8,20.4,13.8l3.6-1.3
	c-2.1-5.5-9.4-15.8-24-15.8c-14.7,0-26.3,11.3-26.3,26.3c0,15,11.6,26.3,26.3,26.3c14.3,0,21.8-10.1,24-15.7l-3.7-1.2
	C285.8,450.9,279.8,461,266.8,461"/>
<path fill="#170F2A" d="M482.8,461c-12.7,0-22.3-10.4-22.3-23c0-12.6,9.8-23,22.3-23c10.2,0,17.5,6.8,20.4,13.8l3.6-1.3
	c-2.1-5.5-9.4-15.8-24-15.8c-14.7,0-26.3,11.3-26.3,26.3c0,15,11.6,26.3,26.3,26.3c14.3,0,21.8-10.1,24-15.7l-3.7-1.2
	C501.8,450.9,495.8,461,482.8,461"/>
<path fill="#170F2A" d="M233.5,425c-1.2-2.4-8-13.3-22.6-13.3c-14.7,0-26.3,11.3-26.3,26.3c0,15,11.6,26.3,26.3,26.3
	c14.2,0,21-10,22.6-13.3v12.1h3.6v-50.2h-3.6V425z M210.9,461c-12.4,0-22.3-10.4-22.3-23c0-12.6,9.8-23,22.3-23
	c12.5,0,22.3,10.4,22.3,23C233.1,450.6,223.3,461,210.9,461"/>
<path fill="#170F2A" d="M177.5,433.4v29.7h3.7c0,0,0-20.3,0-30.6c0-12.4-7.6-20.7-19.4-20.7c-13.2,0-17.7,10.5-18.2,12.3
	c-0.4-1.6-4.7-12.3-18.1-12.3c-10.5,0-15.2,6.7-16.3,8.5v-7.4h-3.5v50.2h3.5v-31.5c0-8.9,5.9-16.7,16.2-16.7
	c9.6,0,16.3,7.2,16.3,16.9v31.3h3.7v-31.3c0-9.7,6.7-16.4,16.3-16.9C174.1,414.2,180.5,422.2,177.5,433.4"/>
<polygon fill="#170F2A" points="310.8,458.3 292.8,412.9 288.6,412.9 308.6,463.2 300.8,482.5 304.9,482.5 333.4,412.9 329.5,412.9 
	"/>
<path fill="#170F2A" d="M353.2,435.6c-0.9-0.2-3.3-0.8-3.6-0.9c-5.6-1.2-11.3-3.9-11.3-9.9c0-5.3,4.4-10,11.6-10
	c10.1,0,12.7,6.5,13.9,10.2l3.3-1.2c-1.7-5.2-5.5-12.2-17.1-12.2c-9.9,0-15.6,6.7-15.6,13.4c0,7.9,6.6,11.6,14.5,13.4
	c0.7,0.2,2.6,0.6,3.3,0.8c9.5,2.2,12,7,12,10.6c0,6.2-5.3,11.5-13.8,11.5c-10.8,0-15-7.1-16-12.5l-3.8,0.9
	c1.2,6.1,5.8,14.9,19.5,14.9c12.8,0,18-8.6,18-14.3C368.3,443.9,364.7,438.1,353.2,435.6"/>
<polygon fill="#170F2A" points="393,410.4 393,400.7 396.7,400.7 396.7,409.8 396.7,410.4 "/>
<path fill="#170F2A" d="M396.2,463.2v-0.5V463.2z M393,463.7v-51.2h3.7v50.6v0.5H393z"/>
<path fill="#170F2A" d="M448.8,463.7v-27c0-8.6-2.3-14-6-17.3c-3.7-3.4-8.8-4.6-13.8-4.6c-12.4,0.2-19.7,7.2-19.8,19.5v29.4h-3.7
	v-51.2h3.7v8.3c3.7-6.3,11.9-9.5,19.2-9.5c0.2,0,0.4,0,0.6,0c6.5,0,12,1.7,16,5.1c5.1,4.3,7.5,11.2,7.5,20.3v27H448.8z"/>
<polygon points="335.5,400.6 334.2,396.6 332.9,400.6 328.7,400.6 332.1,403.1 330.8,407.1 334.2,404.6 337.7,407.1 336.3,403.1 
	339.8,400.6 "/>
</svg>
